# xmcd
# 
# Track frame offsets:
#     150
#     27125
#     50685
#     72825
#     98217
#     122247
#     142810
#     163102
#     182930
#     203580
#     228245
#     251087
#     270217
# 
# Disc length: 3899
# 
# Revision: 0
# Processed by: cddbd v1.5.2PL0 Copyright (c) Steve Scherf et al.
# Submitted via: fre:ac v1.0.17
# 
DISCID=b00f390d
DTITLE=Keith Sweat - Just A Touch
DYEAR=1998
DGENRE=R&B
TTITLE0=I Want Her
TTITLE1=Something Just Ain't Right
TTITLE2=Make It Last Forever
TTITLE3=I'll Give All My Love For You
TTITLE4=Make You Sweat
TTITLE5=How Do You Like It
TTITLE6=Twisted1
TTITLE7=Nobody (with Athena Cage)
TTITLE8=Put Your Lovin' Throgh The Test
TTITLE9=Why Me Baby (with L.L. Cool J.)
TTITLE10=Just A Touch
TTITLE11=Just A Touch (Stevie J. Bad Boy Remix)
TTITLE12=Nobody (The Chanz Remix)
EXTD=YEAR: 1998
EXTT0=
EXTT1=
EXTT2=
EXTT3=
EXTT4=
EXTT5=
EXTT6=
EXTT7=
EXTT8=
EXTT9=
EXTT10=
EXTT11=
EXTT12=
PLAYORDER=
